<svg width="1267" height="372" viewBox="0 0 1267 372" fill="none" xmlns="http://www.w3.org/2000/svg">
<path d="M643.407 138.215H618.119C617.657 134.894 616.714 131.943 615.29 129.364C613.866 126.746 612.037 124.518 609.805 122.682C607.573 120.845 604.994 119.438 602.068 118.461C599.182 117.484 596.045 116.996 592.657 116.996C586.537 116.996 581.206 118.539 576.665 121.626C572.123 124.675 568.601 129.13 566.099 134.991C563.597 140.814 562.346 147.887 562.346 156.211C562.346 164.769 563.597 171.96 566.099 177.782C568.639 183.605 572.18 188.001 576.722 190.971C581.264 193.941 586.518 195.426 592.484 195.426C595.833 195.426 598.931 194.977 601.78 194.078C604.666 193.179 607.226 191.87 609.459 190.151C611.691 188.392 613.539 186.262 615.001 183.761C616.502 181.26 617.542 178.408 618.119 175.203L643.407 175.32C642.753 180.83 641.117 186.145 638.5 191.264C635.921 196.345 632.437 200.897 628.05 204.922C623.7 208.908 618.504 212.074 612.461 214.419C606.456 216.724 599.663 217.877 592.08 217.877C581.534 217.877 572.103 215.454 563.789 210.608C555.514 205.763 548.971 198.748 544.159 189.565C539.386 180.381 537 169.263 537 156.211C537 143.12 539.425 131.982 544.275 122.799C549.125 113.615 555.706 106.62 564.02 101.814C572.334 96.9679 581.688 94.5451 592.08 94.5451C598.931 94.5451 605.282 95.522 611.133 97.476C617.022 99.4299 622.237 102.283 626.779 106.034C631.321 109.747 635.016 114.299 637.865 119.692C640.751 125.085 642.599 131.259 643.407 138.215Z" fill="#004E9D"/>
<path d="M660.641 216.236V197.947L702.731 158.38C706.311 154.863 709.313 151.697 711.738 148.884C714.201 146.07 716.068 143.315 717.338 140.619C718.608 137.883 719.243 134.933 719.243 131.767C719.243 128.25 718.454 125.222 716.876 122.682C715.298 120.102 713.143 118.129 710.41 116.761C707.677 115.354 704.578 114.651 701.114 114.651C697.496 114.651 694.34 115.393 691.646 116.878C688.951 118.363 686.873 120.493 685.41 123.268C683.948 126.042 683.216 129.345 683.216 133.174H659.487C659.487 125.319 661.238 118.5 664.741 112.717C668.243 106.933 673.151 102.458 679.463 99.2931C685.776 96.1277 693.051 94.5451 701.288 94.5451C709.755 94.5451 717.126 96.0691 723.4 99.1173C729.713 102.126 734.62 106.308 738.123 111.661C741.626 117.015 743.377 123.151 743.377 130.067C743.377 134.601 742.492 139.075 740.721 143.491C738.989 147.907 735.891 152.811 731.426 158.204C726.961 163.558 720.668 169.986 712.546 177.489L695.283 194.664V195.485H744.936V216.236H660.641Z" fill="#004E9D"/>
<path d="M805.833 94.5451C811.914 94.5451 817.765 95.5806 823.385 97.6518C829.043 99.723 834.085 103.025 838.511 107.558C842.976 112.091 846.498 118.109 849.077 125.613C851.694 133.077 853.022 142.24 853.061 153.104C853.061 163.304 851.925 172.409 849.654 180.42C847.422 188.392 844.208 195.172 840.013 200.761C835.817 206.349 830.756 210.608 824.828 213.539C818.9 216.431 812.28 217.877 804.967 217.877C797.076 217.877 790.109 216.333 784.066 213.246C778.023 210.12 773.154 205.88 769.459 200.526C765.803 195.133 763.589 189.076 762.82 182.355H787.473C788.435 186.731 790.456 190.131 793.535 192.554C796.614 194.938 800.425 196.13 804.967 196.13C812.665 196.13 818.516 192.73 822.519 185.93C826.522 179.092 828.542 169.732 828.581 157.852H827.773C826.002 161.369 823.616 164.398 820.613 166.938C817.611 169.439 814.166 171.373 810.279 172.741C806.429 174.109 802.33 174.793 797.981 174.793C791.014 174.793 784.798 173.132 779.332 169.81C773.866 166.489 769.555 161.916 766.399 156.094C763.243 150.271 761.665 143.628 761.665 136.164C761.626 128.114 763.455 120.943 767.15 114.651C770.845 108.359 776.003 103.435 782.623 99.8793C789.282 96.2841 797.019 94.506 805.833 94.5451ZM806.006 114.475C802.119 114.475 798.654 115.413 795.614 117.289C792.611 119.165 790.225 121.685 788.454 124.85C786.722 128.016 785.875 131.552 785.914 135.46C785.914 139.407 786.761 142.963 788.454 146.129C790.186 149.255 792.534 151.756 795.498 153.632C798.5 155.469 801.926 156.387 805.775 156.387C808.662 156.387 811.337 155.84 813.8 154.746C816.264 153.651 818.4 152.147 820.209 150.232C822.057 148.278 823.5 146.031 824.539 143.491C825.579 140.951 826.098 138.254 826.098 135.402C826.06 131.611 825.174 128.133 823.442 124.968C821.71 121.802 819.324 119.262 816.283 117.347C813.242 115.433 809.817 114.475 806.006 114.475Z" fill="#004E9D"/>
<path d="M913.164 94.5451C919.245 94.5451 925.096 95.5806 930.716 97.6518C936.374 99.723 941.416 103.025 945.842 107.558C950.307 112.091 953.829 118.109 956.408 125.613C959.026 133.077 960.353 142.24 960.392 153.104C960.392 163.304 959.256 172.409 956.985 180.42C954.753 188.392 951.539 195.172 947.344 200.761C943.148 206.349 938.087 210.608 932.159 213.539C926.231 216.431 919.611 217.877 912.298 217.877C904.407 217.877 897.441 216.333 891.397 213.246C885.354 210.12 880.485 205.88 876.79 200.526C873.134 195.133 870.92 189.076 870.151 182.355H894.804C895.766 186.731 897.787 190.131 900.866 192.554C903.945 194.938 907.756 196.13 912.298 196.13C919.996 196.13 925.847 192.73 929.85 185.93C933.853 179.092 935.873 169.732 935.912 157.852H935.104C933.333 161.369 930.947 164.398 927.944 166.938C924.942 169.439 921.497 171.373 917.61 172.741C913.761 174.109 909.661 174.793 905.312 174.793C898.345 174.793 892.129 173.132 886.663 169.81C881.197 166.489 876.887 161.916 873.73 156.094C870.574 150.271 868.996 143.628 868.996 136.164C868.957 128.114 870.786 120.943 874.481 114.651C878.176 108.359 883.334 103.435 889.954 99.8793C896.613 96.2841 904.35 94.506 913.164 94.5451ZM913.337 114.475C909.45 114.475 905.985 115.413 902.945 117.289C899.942 119.165 897.556 121.685 895.785 124.85C894.053 128.016 893.207 131.552 893.245 135.46C893.245 139.407 894.092 142.963 895.785 146.129C897.518 149.255 899.865 151.756 902.829 153.632C905.831 155.469 909.257 156.387 913.106 156.387C915.993 156.387 918.668 155.84 921.131 154.746C923.595 153.651 925.731 152.147 927.54 150.232C929.388 148.278 930.831 146.031 931.87 143.491C932.91 140.951 933.429 138.254 933.429 135.402C933.391 131.611 932.505 128.133 930.773 124.968C929.041 121.802 926.655 119.262 923.614 117.347C920.573 115.433 917.148 114.475 913.337 114.475Z" fill="#004E9D"/>
<path d="M978.406 216.236V96.1864H1003.41V149.118H1004.96L1047.52 96.1864H1077.48L1033.6 149.939L1078 216.236H1048.09L1015.7 166.879L1003.41 182.12V216.236H978.406Z" fill="#004E9D"/>
<path d="M558.832 265.69V270.859H545.679V295.342H539.528V265.69H558.832Z" fill="#004E9D"/>
<path d="M560.391 303.682V273.103H566.357V276.839H566.627C566.892 276.24 567.276 275.632 567.778 275.014C568.289 274.387 568.952 273.866 569.766 273.451C570.59 273.026 571.613 272.814 572.834 272.814C574.425 272.814 575.893 273.238 577.238 274.088C578.583 274.928 579.657 276.197 580.462 277.896C581.267 279.585 581.67 281.704 581.67 284.252C581.67 286.732 581.277 288.827 580.491 290.535C579.714 292.234 578.654 293.523 577.309 294.401C575.974 295.27 574.477 295.704 572.82 295.704C571.646 295.704 570.647 295.506 569.823 295.11C569.009 294.715 568.341 294.218 567.82 293.619C567.299 293.011 566.902 292.398 566.627 291.78H566.442V303.682H560.391ZM566.315 284.223C566.315 285.545 566.494 286.699 566.854 287.683C567.214 288.668 567.735 289.435 568.417 289.985C569.099 290.526 569.927 290.796 570.903 290.796C571.887 290.796 572.721 290.521 573.403 289.971C574.084 289.411 574.601 288.639 574.951 287.654C575.311 286.66 575.491 285.516 575.491 284.223C575.491 282.939 575.315 281.81 574.965 280.835C574.615 279.86 574.099 279.097 573.417 278.547C572.735 277.997 571.897 277.722 570.903 277.722C569.918 277.722 569.084 277.987 568.403 278.518C567.73 279.049 567.214 279.802 566.854 280.777C566.494 281.752 566.315 282.9 566.315 284.223Z" fill="#004E9D"/>
<path d="M588.736 303.682C587.969 303.682 587.25 303.619 586.577 303.493C585.914 303.378 585.365 303.228 584.93 303.045L586.293 298.44C587.003 298.663 587.643 298.783 588.211 298.802C588.789 298.822 589.286 298.687 589.702 298.397C590.128 298.107 590.474 297.615 590.739 296.92L591.094 295.979L583.268 273.103H589.631L594.148 289.435H594.376L598.935 273.103H605.342L596.861 297.746C596.454 298.942 595.9 299.985 595.199 300.873C594.508 301.771 593.632 302.461 592.572 302.943C591.511 303.436 590.233 303.682 588.736 303.682Z" fill="#004E9D"/>
<path d="M608.438 295.342V273.103H627.515V295.342H621.734V277.954H614.148V295.342H608.438Z" fill="#004E9D"/>
<path d="M632.344 295.342V273.103H651.421V295.342H645.64V277.954H638.055V295.342H632.344Z" fill="#004E9D"/>
<path d="M662.472 295.762C661.08 295.762 659.84 295.516 658.751 295.024C657.662 294.522 656.8 293.783 656.165 292.808C655.54 291.824 655.228 290.598 655.228 289.131C655.228 287.895 655.45 286.858 655.896 286.018C656.341 285.178 656.947 284.503 657.714 283.991C658.481 283.48 659.352 283.093 660.327 282.833C661.312 282.572 662.344 282.389 663.424 282.283C664.693 282.148 665.716 282.022 666.492 281.906C667.269 281.781 667.832 281.597 668.182 281.356C668.533 281.115 668.708 280.758 668.708 280.285V280.198C668.708 279.281 668.424 278.571 667.856 278.069C667.297 277.568 666.502 277.317 665.469 277.317C664.38 277.317 663.514 277.563 662.87 278.055C662.226 278.538 661.8 279.146 661.592 279.879L655.995 279.416C656.279 278.065 656.838 276.897 657.671 275.912C658.504 274.918 659.579 274.155 660.896 273.625C662.221 273.084 663.755 272.814 665.498 272.814C666.71 272.814 667.87 272.959 668.978 273.248C670.095 273.538 671.085 273.987 671.947 274.595C672.818 275.203 673.504 275.985 674.006 276.94C674.508 277.886 674.759 279.02 674.759 280.343V295.342H669.021V292.258H668.85C668.5 292.953 668.031 293.566 667.444 294.097C666.857 294.618 666.151 295.028 665.327 295.328C664.503 295.617 663.552 295.762 662.472 295.762ZM664.205 291.505C665.095 291.505 665.881 291.327 666.563 290.97C667.245 290.603 667.78 290.111 668.168 289.493C668.556 288.875 668.751 288.175 668.751 287.394V285.034C668.561 285.159 668.301 285.275 667.969 285.381C667.647 285.478 667.283 285.569 666.876 285.656C666.468 285.733 666.061 285.806 665.654 285.873C665.247 285.931 664.878 285.984 664.546 286.033C663.836 286.139 663.216 286.308 662.685 286.539C662.155 286.771 661.743 287.085 661.449 287.48C661.156 287.866 661.009 288.349 661.009 288.928C661.009 289.768 661.307 290.41 661.904 290.854C662.51 291.288 663.277 291.505 664.205 291.505Z" fill="#004E9D"/>
<path d="M694.493 287.205L702.348 273.103H708.314V295.342H702.547V281.197L694.72 295.342H688.712V273.103H694.493V287.205Z" fill="#004E9D"/>
<path d="M735.32 288.523L741.229 273.103H745.832L737.323 295.342H733.303L724.994 273.103H729.582L735.32 288.523ZM728.204 273.103V295.342H722.423V273.103H728.204ZM742.735 295.342V273.103H748.445V295.342H742.735Z" fill="#004E9D"/>
<path d="M759.347 295.762C757.955 295.762 756.715 295.516 755.626 295.024C754.537 294.522 753.675 293.783 753.04 292.808C752.415 291.824 752.103 290.598 752.103 289.131C752.103 287.895 752.325 286.858 752.771 286.018C753.216 285.178 753.822 284.503 754.589 283.991C755.356 283.48 756.227 283.093 757.202 282.833C758.187 282.572 759.219 282.389 760.299 282.283C761.568 282.148 762.591 282.022 763.367 281.906C764.144 281.781 764.707 281.597 765.057 281.356C765.408 281.115 765.583 280.758 765.583 280.285V280.198C765.583 279.281 765.299 278.571 764.731 278.069C764.172 277.568 763.377 277.317 762.344 277.317C761.255 277.317 760.389 277.563 759.745 278.055C759.101 278.538 758.675 279.146 758.467 279.879L752.87 279.416C753.154 278.065 753.713 276.897 754.546 275.912C755.379 274.918 756.454 274.155 757.771 273.625C759.096 273.084 760.63 272.814 762.373 272.814C763.585 272.814 764.745 272.959 765.853 273.248C766.97 273.538 767.96 273.987 768.822 274.595C769.693 275.203 770.379 275.985 770.881 276.94C771.383 277.886 771.634 279.02 771.634 280.343V295.342H765.896V292.258H765.725C765.375 292.953 764.906 293.566 764.319 294.097C763.732 294.618 763.026 295.028 762.202 295.328C761.378 295.617 760.427 295.762 759.347 295.762ZM761.08 291.505C761.97 291.505 762.756 291.327 763.438 290.97C764.12 290.603 764.655 290.111 765.043 289.493C765.431 288.875 765.626 288.175 765.626 287.394V285.034C765.436 285.159 765.176 285.275 764.844 285.381C764.522 285.478 764.158 285.569 763.751 285.656C763.343 285.733 762.936 285.806 762.529 285.873C762.122 285.931 761.753 285.984 761.421 286.033C760.711 286.139 760.091 286.308 759.56 286.539C759.03 286.771 758.618 287.085 758.324 287.48C758.031 287.866 757.884 288.349 757.884 288.928C757.884 289.768 758.182 290.41 758.779 290.854C759.385 291.288 760.152 291.505 761.08 291.505Z" fill="#004E9D"/>
<path d="M775.05 295.342L775.022 290.448H775.746C776.258 290.448 776.698 290.323 777.067 290.072C777.446 289.811 777.759 289.392 778.005 288.812C778.251 288.233 778.445 287.466 778.587 286.51C778.729 285.545 778.824 284.358 778.871 282.949L779.226 273.103H795.817V295.342H790.05V277.954H784.667L784.326 284.744C784.241 286.607 784.018 288.209 783.658 289.551C783.308 290.892 782.82 291.993 782.195 292.852C781.57 293.701 780.817 294.329 779.937 294.734C779.056 295.139 778.033 295.342 776.869 295.342H775.05Z" fill="#004E9D"/>
<path d="M806.73 295.762C805.338 295.762 804.097 295.516 803.008 295.024C801.919 294.522 801.058 293.783 800.423 292.808C799.798 291.824 799.486 290.598 799.486 289.131C799.486 287.895 799.708 286.858 800.153 286.018C800.598 285.178 801.204 284.503 801.971 283.991C802.739 283.48 803.61 283.093 804.585 282.833C805.57 282.572 806.602 282.389 807.682 282.283C808.951 282.148 809.973 282.022 810.75 281.906C811.526 281.781 812.09 281.597 812.44 281.356C812.791 281.115 812.966 280.758 812.966 280.285V280.198C812.966 279.281 812.682 278.571 812.114 278.069C811.555 277.568 810.759 277.317 809.727 277.317C808.638 277.317 807.772 277.563 807.128 278.055C806.484 278.538 806.058 279.146 805.849 279.879L800.253 279.416C800.537 278.065 801.096 276.897 801.929 275.912C802.762 274.918 803.837 274.155 805.153 273.625C806.479 273.084 808.013 272.814 809.756 272.814C810.968 272.814 812.128 272.959 813.236 273.248C814.353 273.538 815.343 273.987 816.204 274.595C817.076 275.203 817.762 275.985 818.264 276.94C818.766 277.886 819.017 279.02 819.017 280.343V295.342H813.278V292.258H813.108C812.758 292.953 812.289 293.566 811.702 294.097C811.115 294.618 810.409 295.028 809.585 295.328C808.761 295.617 807.81 295.762 806.73 295.762ZM808.463 291.505C809.353 291.505 810.139 291.327 810.821 290.97C811.503 290.603 812.038 290.111 812.426 289.493C812.814 288.875 813.008 288.175 813.008 287.394V285.034C812.819 285.159 812.559 285.275 812.227 285.381C811.905 285.478 811.541 285.569 811.133 285.656C810.726 285.733 810.319 285.806 809.912 285.873C809.505 285.931 809.135 285.984 808.804 286.033C808.094 286.139 807.473 286.308 806.943 286.539C806.413 286.771 806.001 287.085 805.707 287.48C805.414 287.866 805.267 288.349 805.267 288.928C805.267 289.768 805.565 290.41 806.162 290.854C806.768 291.288 807.535 291.505 808.463 291.505Z" fill="#004E9D"/>
<path d="M836.496 295.342V277.939H832.405C831.297 277.939 830.454 278.2 829.876 278.721C829.299 279.242 829.015 279.86 829.024 280.574C829.015 281.298 829.289 281.911 829.848 282.413C830.416 282.905 831.249 283.151 832.348 283.151H838.513V287.321H832.348C830.482 287.321 828.868 287.032 827.504 286.452C826.141 285.873 825.089 285.067 824.351 284.035C823.612 282.992 823.248 281.781 823.257 280.4C823.248 278.953 823.612 277.683 824.351 276.593C825.089 275.492 826.145 274.638 827.518 274.03C828.901 273.412 830.53 273.103 832.405 273.103H842.135V295.342H836.496ZM822.632 295.342L828.697 283.759H834.479L828.427 295.342H822.632Z" fill="#004E9D"/>
<path d="M875.029 273.103V295.342H869.29V273.103H875.029ZM872.231 282.862V287.727C871.767 287.939 871.189 288.142 870.498 288.335C869.806 288.518 869.082 288.668 868.324 288.783C867.567 288.899 866.857 288.957 866.194 288.957C863.059 288.957 860.592 288.301 858.793 286.988C856.994 285.666 856.094 283.557 856.094 280.661V273.074H861.805V280.661C861.805 281.52 861.947 282.201 862.231 282.703C862.524 283.204 862.988 283.566 863.623 283.788C864.267 284.001 865.124 284.107 866.194 284.107C867.188 284.107 868.163 284.001 869.12 283.788C870.076 283.576 871.113 283.267 872.231 282.862Z" fill="#004E9D"/>
<path d="M885.949 295.762C884.557 295.762 883.316 295.516 882.227 295.024C881.138 294.522 880.276 293.783 879.642 292.808C879.017 291.824 878.704 290.598 878.704 289.131C878.704 287.895 878.927 286.858 879.372 286.018C879.817 285.178 880.423 284.503 881.19 283.991C881.957 283.48 882.829 283.093 883.804 282.833C884.789 282.572 885.821 282.389 886.9 282.283C888.169 282.148 889.192 282.022 889.969 281.906C890.745 281.781 891.309 281.597 891.659 281.356C892.009 281.115 892.185 280.758 892.185 280.285V280.198C892.185 279.281 891.9 278.571 891.332 278.069C890.774 277.568 889.978 277.317 888.946 277.317C887.857 277.317 886.99 277.563 886.346 278.055C885.703 278.538 885.276 279.146 885.068 279.879L879.471 279.416C879.756 278.065 880.314 276.897 881.148 275.912C881.981 274.918 883.056 274.155 884.372 273.625C885.698 273.084 887.232 272.814 888.974 272.814C890.186 272.814 891.347 272.959 892.454 273.248C893.572 273.538 894.561 273.987 895.423 274.595C896.294 275.203 896.981 275.985 897.483 276.94C897.985 277.886 898.236 279.02 898.236 280.343V295.342H892.497V292.258H892.327C891.976 292.953 891.508 293.566 890.92 294.097C890.333 294.618 889.628 295.028 888.804 295.328C887.98 295.617 887.028 295.762 885.949 295.762ZM887.682 291.505C888.572 291.505 889.358 291.327 890.04 290.97C890.721 290.603 891.257 290.111 891.645 289.493C892.033 288.875 892.227 288.175 892.227 287.394V285.034C892.038 285.159 891.777 285.275 891.446 285.381C891.124 285.478 890.759 285.569 890.352 285.656C889.945 285.733 889.538 285.806 889.131 285.873C888.723 285.931 888.354 285.984 888.023 286.033C887.312 286.139 886.692 286.308 886.162 286.539C885.632 286.771 885.22 287.085 884.926 287.48C884.632 287.866 884.486 288.349 884.486 288.928C884.486 289.768 884.784 290.41 885.381 290.854C885.987 291.288 886.754 291.505 887.682 291.505Z" fill="#004E9D"/>
<path d="M912.788 295.776C910.553 295.776 908.631 295.294 907.021 294.329C905.421 293.354 904.19 292.002 903.328 290.275C902.476 288.547 902.05 286.559 902.05 284.31C902.05 282.032 902.481 280.034 903.342 278.316C904.213 276.588 905.449 275.241 907.05 274.276C908.65 273.301 910.553 272.814 912.76 272.814C914.663 272.814 916.33 273.166 917.76 273.871C919.19 274.575 920.321 275.565 921.155 276.839C921.988 278.113 922.447 279.609 922.533 281.327H916.822C916.661 280.217 916.235 279.324 915.544 278.649C914.862 277.963 913.967 277.621 912.859 277.621C911.922 277.621 911.103 277.881 910.402 278.402C909.711 278.914 909.171 279.662 908.783 280.647C908.394 281.631 908.2 282.823 908.2 284.223C908.2 285.642 908.39 286.848 908.768 287.842C909.157 288.837 909.701 289.594 910.402 290.115C911.103 290.637 911.922 290.897 912.859 290.897C913.551 290.897 914.171 290.752 914.72 290.463C915.279 290.173 915.738 289.753 916.098 289.203C916.467 288.643 916.709 287.973 916.822 287.191H922.533C922.438 288.89 921.983 290.386 921.169 291.679C920.364 292.963 919.251 293.967 917.831 294.691C916.41 295.415 914.73 295.776 912.788 295.776Z" fill="#004E9D"/>
<path d="M924.919 277.954V273.103H944.692V277.954H937.66V295.342H931.893V277.954H924.919Z" fill="#004E9D"/>
<path d="M954.141 287.205L961.996 273.103H967.962V295.342H962.195V281.197L954.369 295.342H948.36V273.103H954.141V287.205Z" fill="#004E9D"/>
<path d="M991.89 273.103V291.085H995.37V302.494H989.489V295.342H972.813V273.103H978.594V290.492H986.18V273.103H991.89Z" fill="#004E9D"/>
<path d="M1005.32 295.762C1003.93 295.762 1002.69 295.516 1001.6 295.024C1000.51 294.522 999.651 293.783 999.017 292.808C998.392 291.824 998.079 290.598 998.079 289.131C998.079 287.895 998.302 286.858 998.747 286.018C999.192 285.178 999.798 284.503 1000.57 283.991C1001.33 283.48 1002.2 283.093 1003.18 282.833C1004.16 282.572 1005.2 282.389 1006.28 282.283C1007.54 282.148 1008.57 282.022 1009.34 281.906C1010.12 281.781 1010.68 281.597 1011.03 281.356C1011.38 281.115 1011.56 280.758 1011.56 280.285V280.198C1011.56 279.281 1011.28 278.571 1010.71 278.069C1010.15 277.568 1009.35 277.317 1008.32 277.317C1007.23 277.317 1006.37 277.563 1005.72 278.055C1005.08 278.538 1004.65 279.146 1004.44 279.879L998.846 279.416C999.131 278.065 999.689 276.897 1000.52 275.912C1001.36 274.918 1002.43 274.155 1003.75 273.625C1005.07 273.084 1006.61 272.814 1008.35 272.814C1009.56 272.814 1010.72 272.959 1011.83 273.248C1012.95 273.538 1013.94 273.987 1014.8 274.595C1015.67 275.203 1016.36 275.985 1016.86 276.94C1017.36 277.886 1017.61 279.02 1017.61 280.343V295.342H1011.87V292.258H1011.7C1011.35 292.953 1010.88 293.566 1010.3 294.097C1009.71 294.618 1009 295.028 1008.18 295.328C1007.36 295.617 1006.4 295.762 1005.32 295.762ZM1007.06 291.505C1007.95 291.505 1008.73 291.327 1009.41 290.97C1010.1 290.603 1010.63 290.111 1011.02 289.493C1011.41 288.875 1011.6 288.175 1011.6 287.394V285.034C1011.41 285.159 1011.15 285.275 1010.82 285.381C1010.5 285.478 1010.13 285.569 1009.73 285.656C1009.32 285.733 1008.91 285.806 1008.51 285.873C1008.1 285.931 1007.73 285.984 1007.4 286.033C1006.69 286.139 1006.07 286.308 1005.54 286.539C1005.01 286.771 1004.59 287.085 1004.3 287.48C1004.01 287.866 1003.86 288.349 1003.86 288.928C1003.86 289.768 1004.16 290.41 1004.76 290.854C1005.36 291.288 1006.13 291.505 1007.06 291.505Z" fill="#004E9D"/>
<path d="M1037.34 287.205L1045.2 273.103H1051.17V295.342H1045.4V281.197L1037.57 295.342H1031.56V273.103H1037.34V287.205Z" fill="#004E9D"/>
<path d="M1054.89 289.044H1060.76C1060.79 289.778 1061.11 290.357 1061.73 290.781C1062.34 291.206 1063.14 291.418 1064.11 291.418C1065.1 291.418 1065.93 291.187 1066.6 290.724C1067.27 290.251 1067.61 289.575 1067.61 288.697C1067.61 288.156 1067.47 287.688 1067.21 287.292C1066.94 286.887 1066.57 286.568 1066.1 286.337C1065.63 286.105 1065.08 285.989 1064.45 285.989H1061.31V281.95H1064.45C1065.39 281.95 1066.11 281.728 1066.61 281.284C1067.12 280.84 1067.38 280.285 1067.38 279.619C1067.38 278.866 1067.11 278.262 1066.58 277.809C1066.06 277.346 1065.36 277.114 1064.47 277.114C1063.57 277.114 1062.82 277.321 1062.22 277.736C1061.64 278.142 1061.33 278.673 1061.31 279.329H1055.48C1055.5 277.997 1055.89 276.844 1056.66 275.869C1057.43 274.894 1058.47 274.141 1059.78 273.61C1061.1 273.079 1062.57 272.814 1064.2 272.814C1065.98 272.814 1067.51 273.07 1068.8 273.581C1070.1 274.083 1071.09 274.802 1071.78 275.738C1072.48 276.675 1072.83 277.79 1072.83 279.083C1072.83 280.26 1072.46 281.245 1071.7 282.037C1070.94 282.828 1069.88 283.393 1068.52 283.73V283.962C1069.42 284.02 1070.23 284.266 1070.96 284.701C1071.69 285.135 1072.27 285.733 1072.71 286.496C1073.14 287.249 1073.36 288.142 1073.36 289.174C1073.36 290.555 1072.96 291.737 1072.17 292.722C1071.38 293.706 1070.29 294.464 1068.9 294.995C1067.52 295.516 1065.93 295.776 1064.14 295.776C1062.4 295.776 1060.84 295.521 1059.45 295.009C1058.08 294.488 1056.99 293.725 1056.17 292.722C1055.37 291.718 1054.94 290.492 1054.89 289.044Z" fill="#004E9D"/>
<path d="M1092.11 287.205L1099.97 273.103H1105.93V295.342H1100.16V281.197L1092.34 295.342H1086.33V273.103H1092.11V287.205Z" fill="#004E9D"/>
<path d="M1115.84 273.103L1119.84 280.878L1123.95 273.103H1130.16L1123.84 284.223L1130.33 295.342H1124.15L1119.84 287.654L1115.61 295.342H1109.36L1115.84 284.223L1109.59 273.103H1115.84Z" fill="#004E9D"/>
<path d="M1141.59 295.342L1149.22 283.774L1141.63 273.103H1148.53L1154.2 281.805H1155.14V273.103H1161.19V281.805H1162.1L1167.77 273.103H1174.67L1167.1 283.774L1174.71 295.342H1167.65L1162.04 286.655H1161.19V295.342H1155.14V286.655H1154.29L1148.65 295.342H1141.59Z" fill="#004E9D"/>
<path d="M1183.91 287.205L1191.76 273.103H1197.73V295.342H1191.96V281.197L1184.13 295.342H1178.13V273.103H1183.91V287.205Z" fill="#004E9D"/>
<path d="M1201.46 289.044H1207.32C1207.35 289.778 1207.67 290.357 1208.29 290.781C1208.9 291.206 1209.7 291.418 1210.68 291.418C1211.66 291.418 1212.49 291.187 1213.16 290.724C1213.83 290.251 1214.17 289.575 1214.17 288.697C1214.17 288.156 1214.04 287.688 1213.77 287.292C1213.51 286.887 1213.14 286.568 1212.66 286.337C1212.19 286.105 1211.64 285.989 1211.02 285.989H1207.88V281.95H1211.02C1211.95 281.95 1212.67 281.728 1213.18 281.284C1213.69 280.84 1213.94 280.285 1213.94 279.619C1213.94 278.866 1213.68 278.262 1213.15 277.809C1212.63 277.346 1211.92 277.114 1211.03 277.114C1210.13 277.114 1209.38 277.321 1208.79 277.736C1208.2 278.142 1207.9 278.673 1207.88 279.329H1202.04C1202.06 277.997 1202.45 276.844 1203.22 275.869C1203.99 274.894 1205.04 274.141 1206.34 273.61C1207.66 273.079 1209.13 272.814 1210.76 272.814C1212.54 272.814 1214.07 273.07 1215.36 273.581C1216.66 274.083 1217.65 274.802 1218.35 275.738C1219.05 276.675 1219.4 277.79 1219.4 279.083C1219.4 280.26 1219.02 281.245 1218.26 282.037C1217.5 282.828 1216.44 283.393 1215.08 283.73V283.962C1215.98 284.02 1216.79 284.266 1217.52 284.701C1218.25 285.135 1218.83 285.733 1219.27 286.496C1219.7 287.249 1219.92 288.142 1219.92 289.174C1219.92 290.555 1219.52 291.737 1218.73 292.722C1217.94 293.706 1216.85 294.464 1215.46 294.995C1214.08 295.516 1212.49 295.776 1210.7 295.776C1208.96 295.776 1207.4 295.521 1206.02 295.009C1204.64 294.488 1203.55 293.725 1202.73 292.722C1201.93 291.718 1201.5 290.492 1201.46 289.044Z" fill="#004E9D"/>
<path d="M1238.82 281.761V286.612H1227.43V281.761H1238.82ZM1229.41 273.103V295.342H1223.63V273.103H1229.41ZM1242.61 273.103V295.342H1236.87V273.103H1242.61Z" fill="#004E9D"/>
<path d="M1253.09 287.205L1260.94 273.103H1266.91V295.342H1261.14V281.197L1253.31 295.342H1247.31V273.103H1253.09V287.205Z" fill="#004E9D"/>
<path d="M344.5 112V66.5L388 16L433 66.5V94.5M344.5 112V286M344.5 112L293 100.5M293 100.5V275.5M293 100.5V81.7185C293 66.1079 286.05 51.0519 273.079 42.367C234.356 16.4402 207.271 15.5196 171 42.5185C159.409 51.146 153.5 65.2495 153.5 79.6987V100.5M194.5 275.5V232C194.5 217.088 206.588 206 221.5 206C236.412 206 248.5 218.088 248.5 233V275.5M103.5 112V286M103.5 112L153.5 100.5M103.5 112V93M153.5 100.5V275.5M103.5 93V66.5L58 16L16 66.5V356.5C177.875 314.578 269.253 317.565 433 356.5V94.5M103.5 93L64.5 83.5M433 94.5L396 84" stroke="url(#paint0_linear_5_44)" stroke-width="31" stroke-linecap="round" stroke-linejoin="round"/>
<defs>
<linearGradient id="paint0_linear_5_44" x1="224.5" y1="16" x2="224.5" y2="356.5" gradientUnits="userSpaceOnUse">
<stop stop-color="#004F9F"/>
<stop offset="0.376787" stop-color="#54377B"/>
<stop offset="1" stop-color="#DE0E40"/>
</linearGradient>
</defs>
</svg>
